<svg width="64" height="64" viewBox="0 0 64 64" fill="none" xmlns="http://www.w3.org/2000/svg">
<rect width="64" height="64" rx="32" fill="#110F19"/>
<rect x="12.5" y="14.5" width="35" height="35" stroke="white"/>
<rect x="42" y="18" width="11" height="28" fill="#110F19"/>
<path d="M39.8182 44V20.7273H47.6818C49.5 20.7273 50.9924 21.0379 52.1591 21.6591C53.3258 22.2727 54.1894 23.1174 54.75 24.1932C55.3106 25.2689 55.5909 26.4924 55.5909 27.8636C55.5909 29.2348 55.3106 30.4508 54.75 31.5114C54.1894 32.572 53.3295 33.4053 52.1705 34.0114C51.0114 34.6098 49.5303 34.9091 47.7273 34.9091H41.3636V32.3636H47.6364C48.8788 32.3636 49.8788 32.1818 50.6364 31.8182C51.4015 31.4545 51.9545 30.9394 52.2955 30.2727C52.6439 29.5985 52.8182 28.7955 52.8182 27.8636C52.8182 26.9318 52.6439 26.1174 52.2955 25.4205C51.947 24.7235 51.3902 24.1856 50.625 23.8068C49.8598 23.4205 48.8485 23.2273 47.5909 23.2273H42.6364V44H39.8182ZM50.7727 33.5455L56.5 44H53.2273L47.5909 33.5455H50.7727Z" fill="white"/>
</svg>
